<?xml version="1.0" standalone="no"?>
<!DOCTYPE svg PUBLIC "-//W3C//DTD SVG 1.1//EN" "http://www.w3.org/Graphics/SVG/1.1/DTD/svg11.dtd" >
<svg xmlns="http://www.w3.org/2000/svg">
<metadata>Generated by IcoMoon</metadata>
<defs>
<font id="icomoon" horiz-adv-x="1024">
<font-face units-per-em="1024" ascent="1024" descent="0" />
<missing-glyph horiz-adv-x="1024" />
<glyph unicode="&#x20;" d="" />
<glyph unicode="&#x45;" glyph-name="app_icon_55" d="M147.304 585.143c0 0 0-341.724 0-341.724s146.286 0 146.286 0c0 0 0 341.724 0 341.724s-146.286 0-146.286 0c0 0 0 0 0 0zM439.875 585.143c0 0 0-341.724 0-341.724s146.286 0 146.286 0c0 0 0 341.724 0 341.724s-146.286 0-146.286 0c0 0 0 0 0 0zM49 0c0 0 926.866 0 926.866 0s0 146.286 0 146.286c0 0-926.866 0-926.866 0s0-146.286 0-146.286c0 0 0 0 0 0zM732.447 585.143c0 0 0-341.724 0-341.724s146.286 0 146.286 0c0 0 0 341.724 0 341.724s-146.286 0-146.286 0c0 0 0 0 0 0zM513.018 1024c0 0-464.018-243.419-464.018-243.419s0-98.304 0-98.304c0 0 926.866 0 926.866 0s0 98.304 0 98.304c0 0-462.848 243.419-462.848 243.419s0 0 0 0z" />
<glyph unicode="&#xe900;" glyph-name="app_icon_1" horiz-adv-x="1280" d="M128 896.38v0-768.76c0 0.219-0.161 0.38-0.589 0.38h1025.178c-0.593 0-0.589 0.004-0.589-0.38v768.76c0-0.219 0.161-0.38 0.589-0.38h-1025.178c0.593 0 0.589-0.004 0.589 0.38v0zM0 896.38c0 70.483 57.485 127.62 127.411 127.62h1025.178c70.367 0 127.411-57.249 127.411-127.62v-768.76c0-70.483-57.485-127.62-127.411-127.62h-1025.178c-70.367 0-127.411 57.249-127.411 127.62v768.76zM807.625 256h-295.625v492.937h284.281v-90.406h-173.25v-109.656h161.219v-90.063h-161.219v-112.75h184.594v-90.063z" />
<glyph unicode="&#xe901;" glyph-name="app_icon_2" horiz-adv-x="1280" d="M128 896.38v0-768.76c0 0.219-0.161 0.38-0.589 0.38h1025.178c-0.593 0-0.589 0.004-0.589-0.38v768.76c0-0.219 0.161-0.38 0.589-0.38h-1025.178c0.593 0 0.589-0.004 0.589 0.38v0zM0 896.38c0 70.483 57.485 127.62 127.411 127.62h1025.178c70.367 0 127.411-57.249 127.411-127.62v-768.76c0-70.483-57.485-127.62-127.411-127.62h-1025.178c-70.367 0-127.411 57.249-127.411 127.62v768.76zM855.688 469.469c0-148.042-68.979-222.062-206.938-222.062-133.834 0-200.75 72.301-200.75 216.906v284.625h111.375v-286c0-79.75 31.167-119.625 93.5-119.625 61.188 0 91.781 38.5 91.781 115.5v290.125h111.032v-279.469z" />
<glyph unicode="&#xe902;" glyph-name="app_icon_3" horiz-adv-x="1280" d="M0 896.38v-768.76c0-70.371 57.044-127.62 127.411-127.62h1025.178c69.926 0 127.411 57.137 127.411 127.62v768.76c0 70.371-57.044 127.62-127.411 127.62h-1025.178c-69.926 0-127.411-57.137-127.411-127.62zM839.875 645.594h-140.594v-402.531h-111.375v402.531h-139.907v90.406h391.875v-90.406z" />
<glyph unicode="&#xe903;" glyph-name="app_icon_4" horiz-adv-x="2150" d="M741 853.050h-265.85v-761.15h-210.6v761.15h-264.55v170.95h741v-170.95zM1076.4 91.9h-209.95v932.1h209.95v-932.1zM2126.8 91.9h-211.899l-384.151 585.65c-22.533 34.234-38.133 60.017-46.8 77.35h-2.6c3.466-32.933 5.2-83.2 5.2-150.8v-512.2h-198.25v932.1h226.201l369.85-567.45c16.9-25.567 32.5-50.917 46.8-76.050h2.6c-3.467 21.667-5.2 64.35-5.2 128.050v515.45h198.249v-932.1z" />
<glyph unicode="&#xe904;" glyph-name="app_icon_5" d="M910.667 909.333v-796h-797.333v796h797.333zM910.667 1024h-797.333c-31.111 0-57.778-11.111-80-33.333s-33.333-49.333-33.333-81.333v-796c0-31.111 11.111-57.778 33.333-80s48.889-33.333 80-33.333h797.333c31.111 0 57.778 11.111 80 33.333s33.333 48.889 33.333 80v796c0 32-11.111 59.111-33.333 81.333s-48.889 33.333-80 33.333v0z" />
<glyph unicode="&#xe905;" glyph-name="app_icon_6" d="M910.667 1024h-797.333c-31.111 0-57.778-11.111-80-33.333s-33.333-49.333-33.333-81.333v-796c0-31.111 11.111-57.778 33.333-80s48.889-33.333 80-33.333h797.333c31.111 0 57.778 11.111 80 33.333s33.333 48.889 33.333 80v796c0 32-11.111 59.111-33.333 81.333s-48.889 33.333-80 33.333v0zM398.667 226.667l-285.333 285.333 80 80 205.333-204 432 432 80-81.333-512-512z" />
<glyph unicode="&#xe906;" glyph-name="app_icon_7" d="M512 1024c-70.667 0-137.166-13.333-199.5-40s-116.666-63.166-163-109.5c-46.333-46.334-82.833-100.666-109.5-163s-40-128.833-40-199.5c0-70.667 13.333-137.166 40-199.5s63.167-116.666 109.5-163c46.333-46.334 100.666-82.833 163-109.5s128.833-40 199.5-40c70.667 0 137.166 13.333 199.5 40s116.666 63.166 163 109.5c46.333 46.334 82.833 100.666 109.5 163s40 128.833 40 199.5c0 70.667-13.333 137.166-40 199.5s-63.167 116.666-109.5 163c-46.333 46.334-100.666 82.833-163 109.5s-128.833 40-199.5 40v0zM352 931v-35l-160-160h-68c25.334 44 57.667 82.833 97 116.5s83 59.833 131 78.5v0zM512 384l-229-257c-4.667 2.667-9.167 5.5-13.5 8.5s-8.833 5.833-13.5 8.5v208l-128 96v160c0 8.667 3.167 16.167 9.5 22.5s13.833 9.5 22.5 9.5h96c0 0 5.833-6.833 17.5-20.5s28.5-29.5 50.5-47.5c22-18 48.833-35.833 80.5-53.5s67.5-30.5 107.5-38.5v-96zM899 533c-8.001 26.667-17.834 44.167-29.5 52.5s-34.833 18.167-69.5 29.5c-12 4-23.5 9.333-34.5 16s-21.167 14.667-30.5 24c-31.334 31.333-47 69-47 113s15.667 81.667 47 113c2 2 4.166 4 6.5 6s4.5 4 6.5 6c32-20 61-43.5 87-70.5s48.333-56.833 67-89.5c18.667-32.667 33-67.666 43-105s15-76 15-116c0-41.334-5.333-81.166-16-119.5s-26-74.167-46-107.5c8 53.334 11.333 101 10 143s-4.333 77-9 105v0z" />
<glyph unicode="&#xe907;" glyph-name="app_icon_8" horiz-adv-x="2150" d="M3.9 112.050v208c37.7-31.633 78.649-55.358 122.849-71.175 44.201-15.817 88.833-23.725 133.9-23.725 26.434 0 49.508 2.383 69.225 7.15 19.716 4.767 36.183 11.375 49.4 19.825s23.075 18.417 29.575 29.9c6.499 11.483 9.75 23.942 9.75 37.375 0 18.2-5.2 34.45-15.6 48.75s-24.592 27.517-42.575 39.65c-17.983 12.133-39.326 23.833-64.026 35.1s-51.35 22.75-79.95 34.45c-72.8 30.333-127.075 67.383-162.825 111.15s-53.625 96.633-53.625 158.6c0 48.534 9.75 90.241 29.25 125.125 19.501 34.884 46.042 63.592 79.625 86.125 33.584 22.533 72.475 39.108 116.676 49.725 44.2 10.617 91 15.925 140.4 15.925 48.534 0 91.542-2.925 129.025-8.775s72.041-14.842 103.675-26.975v-194.35c-15.6 10.833-32.608 20.367-51.025 28.6s-37.375 15.058-56.875 20.475c-19.5 5.417-38.892 9.425-58.174 12.025-19.284 2.6-37.592 3.9-54.925 3.9-23.834 0-45.5-2.275-65-6.825s-35.966-10.942-49.4-19.175c-13.433-8.233-23.834-18.092-31.2-29.575s-11.050-24.375-11.050-38.675c0-15.6 4.116-29.575 12.35-41.925 8.233-12.35 19.933-24.050 35.1-35.1s33.583-21.883 55.25-32.5c21.667-10.617 46.151-21.558 73.45-32.825 37.266-15.6 70.741-32.175 100.425-49.725s55.141-37.375 76.375-59.475c21.234-22.1 37.484-47.342 48.75-75.725 11.267-28.383 16.9-61.425 16.9-99.125 0-52-9.858-95.658-29.574-130.975s-46.475-63.917-80.275-85.8-73.125-37.592-117.975-47.125c-44.85-9.533-92.192-14.3-142.025-14.3-51.133 0-99.775 4.333-145.925 13-46.151 8.667-86.125 21.667-119.925 39v0zM1142.050 84.1c-30.333-16.033-76.049-24.050-137.149-24.050-144.734 0-217.1 75.183-217.1 225.55v304.85h-107.9v151.45h107.9v143.65l204.75 58.5v-202.15h149.5v-151.45h-149.5v-269.1c0-69.334 27.517-104 82.55-104 21.667 0 43.984 6.283 66.95 18.85v-152.1zM1671.8 60.050c-133.467 0-242.232 43.441-326.3 130.325s-126.1 200.091-126.1 339.625c0 147.334 42.683 266.5 128.050 357.5s198.467 136.5 339.3 136.5c133.034 0 240.607-43.55 322.725-130.65s123.175-201.933 123.175-344.5c0-146.467-42.575-264.55-127.725-354.25s-196.191-134.55-333.126-134.55v0zM1680.9 843.3c-73.668 0-132.167-27.625-175.5-82.875s-64.999-128.375-64.999-219.375c0-92.3 21.666-165.316 64.999-219.050s100.1-80.6 170.3-80.6c72.367 0 129.783 26.108 172.25 78.325 42.466 52.217 63.7 124.691 63.7 217.425 0 96.634-20.583 171.816-61.75 225.55s-97.5 80.6-169 80.6v0z" />
<glyph unicode="&#xe908;" glyph-name="app_icon_9" horiz-adv-x="2662" d="M209.95 397.4v-321.1h-209.95v932.1h328.9c234.869 0 352.3-99.016 352.3-297.050 0-93.6-33.691-169.325-101.075-227.175s-157.407-86.775-270.075-86.775h-100.1zM209.95 847.2v-290.55h82.551c111.8 0 167.699 48.966 167.699 146.9 0 95.767-55.899 143.65-167.699 143.65h-82.551zM1211.6 60.050c-133.467 0-242.232 43.441-326.3 130.325s-126.1 200.091-126.1 339.625c0 147.334 42.683 266.5 128.050 357.5s198.466 136.5 339.3 136.5c133.034 0 240.607-43.55 322.725-130.65 82.117-87.1 123.175-201.933 123.175-344.5 0-146.467-42.575-264.55-127.725-354.25-85.151-89.7-196.191-134.55-333.126-134.55v0zM1220.7 843.3c-73.668 0-132.167-27.625-175.5-82.875s-64.999-128.375-64.999-219.375c0-92.3 21.666-165.316 64.999-219.050s100.1-80.6 170.3-80.6c72.367 0 129.783 26.108 172.25 78.325 42.466 52.217 63.7 124.691 63.7 217.425 0 96.634-20.583 171.816-61.75 225.55s-97.5 80.6-169 80.6v0zM2626.65 76.3h-228.801l-66.3 207.35h-331.5l-65.651-207.35h-227.499l339.299 932.1h248.95l331.501-932.1zM2283.45 444.85l-100.1 313.3c-7.367 23.4-12.567 51.35-15.601 83.85h-5.2c-2.167-27.3-7.583-54.383-16.25-81.25l-101.4-315.9h238.55z" />
<glyph unicode="&#xe909;" glyph-name="app_icon_10" horiz-adv-x="2355" d="M3.9 112.050v208c37.7-31.633 78.649-55.358 122.849-71.175 44.201-15.817 88.833-23.725 133.9-23.725 26.434 0 49.508 2.383 69.225 7.15 19.716 4.767 36.183 11.375 49.4 19.825s23.075 18.417 29.575 29.9c6.499 11.483 9.75 23.942 9.75 37.375 0 18.2-5.2 34.45-15.6 48.75s-24.592 27.517-42.575 39.65c-17.983 12.133-39.326 23.833-64.026 35.1s-51.35 22.75-79.95 34.45c-72.8 30.333-127.075 67.383-162.825 111.15s-53.625 96.633-53.625 158.6c0 48.534 9.75 90.241 29.25 125.125 19.501 34.884 46.042 63.592 79.625 86.125 33.584 22.533 72.475 39.108 116.676 49.725 44.2 10.617 91 15.925 140.4 15.925 48.534 0 91.542-2.925 129.025-8.775s72.041-14.842 103.675-26.975v-194.35c-15.6 10.833-32.608 20.367-51.025 28.6s-37.375 15.058-56.875 20.475c-19.5 5.417-38.892 9.425-58.174 12.025-19.284 2.6-37.592 3.9-54.925 3.9-23.834 0-45.5-2.275-65-6.825s-35.966-10.942-49.4-19.175c-13.433-8.233-23.834-18.092-31.2-29.575s-11.050-24.375-11.050-38.675c0-15.6 4.116-29.575 12.35-41.925 8.233-12.35 19.933-24.050 35.1-35.1s33.583-21.883 55.25-32.5c21.667-10.617 46.151-21.558 73.45-32.825 37.266-15.6 70.741-32.175 100.425-49.725s55.141-37.375 76.375-59.475c21.234-22.1 37.484-47.342 48.75-75.725 11.267-28.383 16.9-61.425 16.9-99.125 0-52-9.858-95.658-29.574-130.975s-46.475-63.917-80.275-85.8-73.125-37.592-117.975-47.125c-44.85-9.533-92.192-14.3-142.025-14.3-51.133 0-99.775 4.333-145.925 13-46.151 8.667-86.125 21.667-119.925 39v0zM1002.95 397.4v-321.1h-209.95v932.1h328.9c234.869 0 352.3-99.016 352.3-297.050 0-93.6-33.691-169.325-101.075-227.175s-157.407-86.775-270.075-86.775h-100.1zM1002.95 847.2v-290.55h82.551c111.8 0 167.699 48.966 167.699 146.9 0 95.767-55.899 143.65-167.699 143.65h-82.551zM2265.25 837.45h-265.85v-761.15h-210.6v761.15h-264.55v170.95h741v-170.95z" />
<glyph unicode="&#xe90a;" glyph-name="app_icon_11" d="M0 213.333v-213.333h213.333l629.333 629.333-213.333 213.333-629.333-629.333zM1006.667 793.333c11.555 11.556 17.333 25.111 17.333 40.667s-5.778 28.667-17.333 39.333l-132 133.333c-11.556 11.556-25.111 17.333-40.666 17.333s-29.111-5.778-40.666-17.333l-104.001-104 213.333-213.333 104.001 104z" />
<glyph unicode="&#xe90b;" glyph-name="app_icon_12" horiz-adv-x="1260" d="M1063.385 1024h-944.308c-33.231 0-61.154-11.538-83.77-34.615s-33.923-50.769-33.923-83.077l-1.385-708.923c0-33.231 11.538-61.384 34.615-84.462s51.231-34.615 84.462-34.615h944.308c33.231 0 61.385 11.538 84.462 34.615s34.615 51.231 34.615 84.462v708.923c0 32.308-11.538 60-34.615 83.077s-51.231 34.615-84.462 34.615v0zM1063.385 787.231l-472.154-294.923-472.154 294.923v119.077l472.154-296.308 472.154 296.308v-119.077z" />
<glyph unicode="&#xe90c;" glyph-name="app_icon_13" d="M199.286 595.857c19.714-38.572 42.214-75.428 67.5-110.571s53.357-67.928 84.214-98.357c30.858-30.429 63.642-58.5 98.357-84.214s71.786-48.428 111.214-68.143l120.858 120.857c7.714 7.714 16.5 12.643 26.357 14.786s19.5 1.929 28.929-0.643c30.857-10.286 62.571-18.214 95.143-23.786s66-8.357 100.285-8.357c15.429 0 28.5-5.357 39.214-16.071s16.072-23.357 16.072-37.929v-192.857c0-14.571-5.357-27.214-16.072-37.929s-23.785-16.071-39.214-16.071c-128.572 0-249.428 24.428-362.571 73.286s-211.929 115.5-296.357 199.929c-84.429 84.429-151.071 183.214-199.929 296.357s-73.285 233.999-73.285 362.571c0 15.429 5.357 28.5 16.072 39.214s23.785 16.071 39.214 16.071h191.571c15.429 0 28.5-5.357 39.214-16.071s16.072-23.786 16.072-39.214c0-34.286 2.572-67.714 7.714-100.286s12.857-64.286 23.142-95.143c3.429-9.429 3.858-19.286 1.286-29.571s-7.286-19.286-14.143-27l-120.857-120.857z" />
<glyph unicode="&#xe90d;" glyph-name="app_icon_14" horiz-adv-x="1260" d="M1063.385 1024h-944.308c-33.231 0-61.385-11.538-84.462-34.615s-34.615-50.769-34.615-83.077v-708.923c0-33.231 11.538-61.384 34.615-84.462s51.231-34.615 84.462-34.615h944.308c33.231 0 61.385 11.538 84.462 34.615s34.615 51.231 34.615 84.462v708.923c0 32.308-11.538 60-34.615 83.077s-51.231 34.615-84.462 34.615v0zM119.077 551.846h235.385v-119.077h-235.385v119.077zM708.923 197.385h-589.846v117.692h589.846v-117.692zM1063.385 197.385h-235.385v117.692h235.385v-117.692zM1063.385 432.769h-589.846v119.077h589.846v-119.077z" />
<glyph unicode="&#xe90e;" glyph-name="app_icon_15" horiz-adv-x="1593" d="M598 0h340v170h-340v-170zM0 1024v-172h1536v172h-1536zM256 426h1024v170h-1024v-170z" />
<glyph unicode="&#xe90f;" glyph-name="app_icon_16" horiz-adv-x="945" d="M555.231 906.308l-23.539 117.692h-531.692v-1003.846h119.077v412.615h330.923l23.539-117.692h412.615v591.231z" />
<glyph unicode="&#xe910;" glyph-name="app_icon_17" horiz-adv-x="751" d="M358.8 1024c-49.601 0-96.2-9.4-139.8-28.2s-81.6-44.4-114-76.8c-32.401-32.4-58-70.2-76.8-113.4s-28.2-89.6-28.2-139.2c0-67.2 18.8-139.8 56.4-217.8s78.8-150.2 123.6-216.6c44.8-66.4 85.8-121.6 123-165.6s55.8-66 55.8-66c0 0 18.6 22 55.8 66s78.2 99.2 123 165.6c44.8 66.4 86 138.6 123.6 216.6s56.4 150.6 56.4 217.8c0 49.6-9.4 96-28.2 139.2s-44.4 81-76.8 113.4c-32.4 32.4-70.399 58-114 76.8s-90.199 28.2-139.8 28.2v0zM358.8 538c-35.2 0-65.4 12.6-90.6 37.8s-37.8 55.4-37.8 90.6c0 35.2 12.6 65.2 37.8 90s55.4 37.2 90.6 37.2c35.2 0 65.4-12.4 90.6-37.2s37.8-54.8 37.8-90c0-35.2-12.6-65.4-37.8-90.6s-55.4-37.8-90.6-37.8v0z" />
<glyph unicode="&#xe911;" glyph-name="app_icon_18" horiz-adv-x="1182" d="M473.539 18.769v354.462h235.385v-354.462h296.308v473.538h177.231l-591.231 531.692-591.231-531.692h177.231v-473.538z" />
<glyph unicode="&#xe912;" glyph-name="app_icon_19" horiz-adv-x="1600" d="M298.375 725.625c41.417 0 76.708 14.583 105.875 43.75s43.75 64.166 43.75 105c0 41.417-14.583 76.708-43.75 105.875s-64.458 43.75-105.875 43.75c-41.417 0-76.708-14.583-105.875-43.75s-43.75-64.458-43.75-105.875c0-40.834 14.583-75.833 43.75-105s64.458-43.75 105.875-43.75v0zM298.375 650.375c-25.084 0-54.687-3.062-88.813-9.188s-66.791-15.458-98-28c-31.208-12.542-57.604-28.146-79.187-46.812s-32.375-40.25-32.375-64.75v-75.25h596.75v75.25c0 24.5-10.792 46.083-32.375 64.75s-47.979 34.271-79.188 46.812c-31.208 12.542-63.875 21.875-98 28s-63.729 9.188-88.812 9.188zM1471.375 736h-682c-24 0-44.166-8.333-60.5-25s-24.5-36.667-24.5-60l-1-512c0-24 8.333-44.333 25-61s37-25 61-25h682c24.001 0 44.333 8.333 61 25s25 37 25 61v512c0 23.333-8.333 43.333-25 60s-37 25-61 25zM1471.375 565l-341-213-341 213v86l341-214 341 214v-86z" />
<glyph unicode="&#xe913;" glyph-name="app_icon_20" horiz-adv-x="585" d="M567.629 1024v-1017.879l-567.629 567.629z" />
<glyph unicode="&#xe914;" glyph-name="app_icon_21" horiz-adv-x="731" d="M638.857 27.837c8.381-7.619 15.619-10.286 21.714-8 5.333 2.286 8 9.143 8 20.571v961.143c0 11.429-2.667 18.667-8 21.714-6.095 2.286-13.333-0.762-21.714-9.143l-462.857-462.857c-3.81-3.81-6.857-8-9.143-12.571v442.286c0 11.429-4.19 21.333-12.571 29.714s-17.905 12.571-28.571 12.571h-84.571c-10.667 0-20.19-4.19-28.571-12.571s-12.571-18.286-12.571-29.714v-918.857c0-11.429 4.19-21.333 12.571-29.714s17.905-12.571 28.571-12.571h84.571c10.667 0 20.19 4.19 28.571 12.571s12.571 18.286 12.571 29.714v442.286c2.286-4.571 5.333-8.762 9.143-12.571l462.857-464z" />
<glyph unicode="&#xe915;" glyph-name="app_icon_22" horiz-adv-x="585" d="M0 1024v-1017.879l567.629 567.629z" />
<glyph unicode="&#xe916;" glyph-name="app_icon_23" horiz-adv-x="731" d="M29.714 27.837c-8.381-7.619-15.619-10.286-21.714-8-5.333 2.286-8 9.143-8 20.571v961.143c0 11.429 2.667 18.667 8 21.714 6.095 2.286 13.333-0.762 21.714-9.143l462.857-462.857c3.81-3.81 6.857-8 9.143-12.571v442.286c0 11.429 4.19 21.333 12.571 29.714s17.905 12.571 28.571 12.571h84.571c10.667 0 20.19-4.19 28.571-12.571s12.571-18.286 12.571-29.714v-918.857c0-11.429-4.19-21.333-12.571-29.714s-17.905-12.571-28.571-12.571h-84.571c-10.667 0-20.19 4.19-28.571 12.571s-12.571 18.286-12.571 29.714v442.286c-2.286-4.571-5.333-8.762-9.143-12.571l-462.857-464z" />
<glyph unicode="&#xe917;" glyph-name="app_icon_24" horiz-adv-x="1280" d="M1188.75 131.5v548.75c-15-16.667-31.667-32.083-50-46.25-127.501-98.334-228.75-179.166-303.75-242.5-24.167-20-43.75-35.833-58.75-47.5-15.833-11.667-36.666-23.333-62.5-35s-50-17.5-72.5-17.5h-2.5c-22.5 0-46.667 5.833-72.5 17.5s-46.667 23.333-62.5 35c-15 11.667-34.583 27.5-58.75 47.5-75 63.334-176.249 144.166-303.75 242.5-18.333 14.167-35 29.583-50 46.25v-548.75c0-5.833 2.5-10.833 7.5-15 4.167-5 9.167-7.5 15-7.5h1052.5c5.833 0 10.833 2.5 15 7.5 5 4.167 7.5 9.167 7.5 15v0zM1188.75 882.75v26.25c-0.833 6.667-1.667 10-2.5 10-1.667-0.833-2.917 1.25-3.75 6.25-1.667 4.167-3.75 5.833-6.25 5-3.333-0.833-6.667-0.417-10 1.25h-1052.5c-5.833 0-10.833-2.083-15-6.25-5-4.167-7.5-9.583-7.5-16.25 0-80 35-147.5 105-202.5 91.667-72.5 187.083-147.916 286.25-226.25 3.333-2.5 11.667-9.583 25-21.25 14.167-11.667 25.417-20.833 33.75-27.5 7.5-5.833 17.917-13.333 31.25-22.5 13.333-8.333 25.417-14.583 36.25-18.75s20.833-6.25 30-6.25h2.5c9.167 0 19.167 2.083 30 6.25s22.917 10.417 36.25 18.75c13.333 9.167 23.75 16.667 31.25 22.5 8.333 6.667 19.583 15.833 33.75 27.5 13.333 11.667 21.667 18.75 25 21.25 99.167 78.334 194.583 153.75 286.25 226.25 25.833 20 49.583 47.5 71.25 82.5 22.5 34.167 33.75 65.417 33.75 93.75v0zM1280 909v-777.5c0-30.833-11.25-57.5-33.75-80s-49.167-33.75-80-33.75h-1052.5c-30.833 0-57.5 11.25-80 33.75s-33.75 49.167-33.75 80v777.5c0 31.667 11.25 58.75 33.75 81.25s49.167 33.75 80 33.75h1052.5c30.833 0 57.5-11.25 80-33.75s33.75-49.583 33.75-81.25v0z" />
<glyph unicode="&#xe918;" glyph-name="app_icon_25" horiz-adv-x="2048" d="M0 1024l958.5-958.5 958.5 958.5z" />
<glyph unicode="&#xe919;" glyph-name="app_icon_26" horiz-adv-x="1186" d="M0 0.842h1184.842l-592.421 1023.158-592.421-1023.158zM646.737 162.526h-108.632v107.368h108.632v-107.368zM646.737 377.263h-108.632v216h108.632v-216z" />
<glyph unicode="&#xe91a;" glyph-name="app_icon_27" horiz-adv-x="1265" d="M1084.235 1024h-962.824c-33.883 0-62.353-11.765-85.412-35.294s-34.588-51.765-34.588-84.706l-1.412-722.824c0-33.883 11.765-62.588 35.294-86.118s52.235-35.294 86.118-35.294h962.824c33.883 0 62.588 11.765 86.118 35.294s35.294 52.235 35.294 86.118v722.824c0 32.941-11.765 61.176-35.294 84.706s-52.235 35.294-86.118 35.294v0zM1084.235 181.176h-962.824v361.412h962.824v-361.412zM1084.235 782.588h-962.824v121.412h962.824v-121.412z" />
<glyph unicode="&#xe91b;" glyph-name="app_icon_28" horiz-adv-x="1170" d="M1097.143 73.143v658.286l-292.571-219.429v219.429l-292.571-219.429v292.571l-292.571-219.429v438.857h-146.286v-950.857h-73.143v-73.143h1170.286v73.143z" />
<glyph unicode="&#xe91c;" glyph-name="app_icon_29" horiz-adv-x="1132" d="M1131.789 316.632v-202.263c0-16.947-5.895-31.316-17.684-43.105s-26.158-17.684-43.105-17.684h-202.263c-16.947 0-31.316 5.895-43.105 17.684s-17.684 26.158-17.684 43.105v202.263c0 16.947 5.895 31.316 17.684 43.105s26.158 17.684 43.105 17.684h60.789v120.474h-322.737v-120.474h59.684c16.947 0 31.316-5.895 43.105-17.684s17.684-26.158 17.684-43.105v-202.263c0-16.947-5.895-31.316-17.684-43.105s-26.158-17.684-43.105-17.684h-201.158c-16.947 0-31.316 5.895-43.105 17.684s-17.684 26.158-17.684 43.105v202.263c0 16.947 5.895 31.316 17.684 43.105s26.158 17.684 43.105 17.684h59.684v120.474h-322.737v-120.474h60.789c16.947 0 31.316-5.895 43.105-17.684s17.684-26.158 17.684-43.105v-202.263c0-16.947-5.895-31.316-17.684-43.105s-26.158-17.684-43.105-17.684h-202.263c-16.947 0-31.316 5.895-43.105 17.684s-17.684 26.158-17.684 43.105v202.263c0 16.947 5.895 31.316 17.684 43.105s26.158 17.684 43.105 17.684h60.789v120.474c0 22.105 7.737 41.263 23.211 57.474 16.211 15.474 35.368 23.211 57.474 23.211h322.737v121.579h-59.684c-16.947 0-31.316 5.895-43.105 17.684s-17.684 26.158-17.684 43.105v202.263c0 16.947 5.895 31.316 17.684 43.105s26.158 17.684 43.105 17.684h201.158c16.947 0 31.316-5.895 43.105-17.684s17.684-26.158 17.684-43.105v-202.263c0-16.947-5.895-31.316-17.684-43.105s-26.158-17.684-43.105-17.684h-59.684v-121.579h322.737c22.105 0 41.263-7.737 57.474-23.211 15.474-16.211 23.211-35.368 23.211-57.474v-120.474h60.789c16.947 0 31.316-5.895 43.105-17.684s17.684-26.158 17.684-43.105v0z" />
<glyph unicode="&#xe91d;" glyph-name="app_icon_30" horiz-adv-x="1195" d="M652.944 1024c-67.297 0-130.759-12.991-190.389-38.972s-111.592-61.12-155.889-105.417c-44.297-44.297-79.222-96.259-104.778-155.889s-38.333-123.092-38.333-190.389h-163.556l212.111-213.389 3.833-7.667 219.778 221.056h-163.556c0 52.815 10.009 102.222 30.028 148.222s47.278 86.25 81.778 120.75c34.5 34.5 74.963 61.759 121.389 81.778s96.046 30.028 148.861 30.028c52.815 0 102.222-10.009 148.222-30.028s86.25-47.278 120.75-81.778c34.5-34.5 61.759-74.75 81.778-120.75s30.028-95.407 30.028-148.222c0-52.815-10.009-102.435-30.028-148.861s-47.278-86.889-81.778-121.389c-34.5-34.5-74.75-61.759-120.75-81.778s-95.407-30.028-148.222-30.028c-52.815 0-102.435 10.009-148.861 30.028s-86.676 47.491-120.75 82.417l-77.944-77.944c44.297-44.297 96.259-79.222 155.889-104.778s123.092-38.333 190.389-38.333c68.149 0 132.037 12.778 191.667 38.333s111.592 60.481 155.889 104.778c44.297 44.297 79.435 96.259 105.417 155.889s38.972 123.518 38.972 191.667c0 67.297-12.991 130.759-38.972 190.389s-61.12 111.592-105.417 155.889c-44.297 44.297-96.259 79.435-155.889 105.417s-123.518 38.972-191.667 38.972v0zM599.278 750.556v-272.167l233.833-138 38.333 65.167-190.389 113.722v231.278h-81.778z" />
<glyph unicode="&#xe91e;" glyph-name="app_icon_31" horiz-adv-x="964" d="M481.412 542.588c66.824 0 123.764 23.529 170.823 70.588s70.588 103.529 70.588 169.412c0 66.824-23.529 123.764-70.588 170.824s-104 70.588-170.823 70.588c-66.824 0-123.764-23.529-170.824-70.588s-70.588-104-70.588-170.824c0-65.883 23.529-122.353 70.588-169.412s104-70.588 170.824-70.588v0zM481.412 421.176c-40.471 0-88.235-4.941-143.294-14.824s-107.764-24.941-158.118-45.176c-50.353-20.235-92.941-45.412-127.765-75.529s-52.235-64.941-52.235-104.471v-121.412h962.824v121.412c0 39.53-17.412 74.353-52.235 104.471s-77.412 55.294-127.765 75.529c-50.353 20.235-103.059 35.294-158.118 45.176s-102.823 14.824-143.294 14.824v0z" />
<glyph unicode="&#xe91f;" glyph-name="app_icon_32" horiz-adv-x="1132" d="M970.105 809.263h-214.737v107.368c0 29.474-10.526 54.737-31.579 75.789s-46.737 31.579-77.053 31.579h-214.737c-30.316 0-56-10.526-77.053-31.579s-31.579-46.316-31.579-75.789v-107.368h-214.737c-30.316 0-55.789-10.526-76.421-31.579s-30.947-46.737-30.947-77.053l-1.263-592.421c0-29.474 10.526-54.737 31.579-75.789s46.737-31.579 77.053-31.579h861.474c30.316 0 56 10.526 77.053 31.579s31.579 46.316 31.579 75.789v592.421c0 30.316-10.526 56-31.579 77.053s-46.737 31.579-77.053 31.579v0zM646.737 809.263h-214.737v107.368h214.737v-107.368z" />
<glyph unicode="&#xe920;" glyph-name="app_icon_33" horiz-adv-x="1195" d="M569.334 796v228h-569.334v-1024h1138.667v796h-569.333zM228 113.333h-113.334v113.333h113.334v-113.333zM228 341.333h-113.334v113.333h113.334v-113.333zM228 568h-113.334v114.667h113.334v-114.667zM228 796h-113.334v113.333h113.334v-113.333zM456 113.333h-114.667v113.333h114.667v-113.333zM456 341.333h-114.667v113.333h114.667v-113.333zM456 568h-114.667v114.667h114.667v-114.667zM456 796h-114.667v113.333h114.667v-113.333zM1024 113.333h-454.666v113.333h113.333v114.667h-113.333v113.333h113.333v113.333h-113.333v114.667h454.666v-569.333zM910.667 568h-113.334v-113.333h113.334v113.333zM910.667 341.333h-113.334v-114.667h113.334v114.667z" />
<glyph unicode="&#xe921;" glyph-name="app_icon_34" d="M512.4 1024c-70.4 0-136.8-13.4-199.2-40.2s-116.8-63.2-163.2-109.2c-46.4-46-83-100.2-109.8-162.6s-40.2-128.8-40.2-199.2c0-71.2 13.4-137.8 40.2-199.8s63.4-116.2 109.8-162.6c46.4-46.4 100.8-83 163.2-109.8s128.8-40.2 199.2-40.2c70.4 0 136.8 13.4 199.2 40.2s116.8 63.4 163.2 109.8c46.4 46.4 83 100.6 109.8 162.6s40.2 128.6 40.2 199.8c0 70.4-13.4 136.8-40.2 199.2s-63.4 116.6-109.8 162.6c-46.4 46-100.8 82.4-163.2 109.2s-128.8 40.2-199.2 40.2v0zM564 256h-103.2v103.2h103.2v-103.2zM564 461.2h-103.2v307.2h103.2v-307.2z" />
<glyph unicode="&#xe922;" glyph-name="app_icon_35" d="M710.667 397.333h-45.333l-14.667 16c27.556 32 49.333 68.666 65.333 110s24 84.666 24 130c0 51.556-9.778 99.778-29.333 144.667s-46 84-79.333 117.333c-33.333 33.333-72.444 59.778-117.333 79.333s-93.111 29.333-144.667 29.333c-50.667 0-98.444-9.778-143.333-29.333s-84-46-117.333-79.333c-33.333-33.334-59.778-72.444-79.333-117.333s-29.333-93.111-29.333-144.667c0-50.667 9.778-98.444 29.333-143.333s46-84 79.333-117.333c33.334-33.334 72.444-59.778 117.333-79.333s92.666-29.333 143.333-29.333c46.222 0 89.778 8 130.667 24s77.778 37.778 110.667 65.333l14.667-16v-45.333l285.333-284 84 85.333-284 284zM369.333 397.333c-70.223 0-130.444 25.111-180.667 75.333s-75.333 110.444-75.333 180.667c0 71.111 25.111 131.555 75.333 181.333s110.444 74.667 180.667 74.667c71.111 0 131.555-24.889 181.333-74.667s74.667-110.222 74.667-181.333c0-70.223-24.889-130.444-74.667-180.667s-110.222-75.333-181.333-75.333v0z" />
<glyph unicode="&#xe923;" glyph-name="app_icon_36" horiz-adv-x="1536" d="M1536 1024h-1536v-170h1536v170zM1536 598h-1536v-170h1536v170zM1536 0v172h-1536v-172h1536z" />
<glyph unicode="&#xe924;" glyph-name="app_icon_37" horiz-adv-x="1138" d="M682.667 56v341.333h-226.667v-341.333h-285.333v456h-170.667l569.333 512 569.333-512h-170.667v-456z" />
<glyph unicode="&#xe925;" glyph-name="app_icon_38" horiz-adv-x="683" d="M0 122l392 390-392 392 122 120 512-512-512-512z" />
<glyph unicode="&#xe926;" glyph-name="app_icon_39" horiz-adv-x="683" d="M634 122l-392 390 392 392-122 120-512-512 512-512z" />
<glyph unicode="&#xe927;" glyph-name="app_icon_40" horiz-adv-x="1317" d="M1207.286 1024h-822.857c-18.857 0-35.786-4.5-50.786-13.5s-27.214-20.786-36.643-35.357l-297-444.857 297-444.857c9.429-14.572 21.643-26.357 36.643-35.357s31.929-13.5 50.786-13.5h822.857c30 0 55.714 10.714 77.143 32.143s32.143 47.143 32.143 77.143v767.571c0 30.857-10.714 57-32.143 78.429s-47.143 32.143-77.143 32.143v0zM1042.714 333.571l-78.429-78.429-196.714 196.714-196.714-196.714-77.143 78.429 196.714 196.714-196.714 196.714 77.143 77.143 196.714-196.714 196.714 196.714 78.429-77.143-196.714-196.714 196.714-196.714z" />
<glyph unicode="&#xe928;" glyph-name="app_icon_41" horiz-adv-x="956" d="M819.6 922h-51.6v102h-102v-102h-410.4v102h-102v-102h-51.6c-28 0-52-10-72-30s-30-44.4-30-73.2v-716.4c0-28 10-52 30-72s44-30 72-30h717.6c28 0 52 10 72 30s30 44 30 72v716.4c0 28.8-10 53.2-30 73.2s-44 30-72 30v0zM819.6 102.4h-717.6v562.8h717.6v-562.8zM205.2 307.6h255.6v255.6h-255.6v-255.6z" />
<glyph unicode="&#xe929;" glyph-name="app_icon_42" horiz-adv-x="1434" d="M428.4 212.2l-320.4 320.4-108-109.8 428.4-428.4 921.6 921.6-108 108z" />
<glyph unicode="&#xe92a;" glyph-name="app_icon_43" d="M978.545 925.818l-99.818 98.182-389.455-389.455-389.455 389.455-99.818-98.182 391.091-389.455-391.091-391.091 99.818-98.182 389.455 389.455 389.455-389.455 99.818 98.182-391.091 391.091z" />
</font>
</defs>
</svg>
